<svg xmlns="http://www.w3.org/2000/svg" width="288" height="250" viewBox="0 0 288 250">
  <g fill="none" fill-rule="evenodd">
    <rect width="267" height="151" x="9" y="13" fill="#85994B"/>
    <path fill="#0B0C0C" d="M268,148.642857 L268,24.2142857 C268,22.9181483 267.526418,21.7965077 266.579241,20.8493304 C265.632064,19.902153 264.510423,19.4285714 263.214286,19.4285714 L23.9285714,19.4285714 C22.632434,19.4285714 21.5107934,19.902153 20.5636161,20.8493304 C19.6164387,21.7965077 19.1428571,22.9181483 19.1428571,24.2142857 L19.1428571,148.642857 C19.1428571,149.938995 19.6164387,151.060635 20.5636161,152.007812 C21.5107934,152.95499 22.632434,153.428571 23.9285714,153.428571 L263.214286,153.428571 C264.510423,153.428571 265.632064,152.95499 266.579241,152.007812 C267.526418,151.060635 268,149.938995 268,148.642857 Z M287.142857,24.2142857 L287.142857,186.928571 C287.142857,193.508961 284.799875,199.14209 280.113839,203.828125 C275.427804,208.51416 269.794676,210.857143 263.214286,210.857143 L181.857143,210.857143 C181.857143,214.546149 182.654754,218.409578 184.25,222.447545 C185.845246,226.485511 187.440468,230.02491 189.035714,233.065848 C190.63096,236.106786 191.428571,238.275291 191.428571,239.571429 C191.428571,242.163703 190.481408,244.406985 188.587054,246.301339 C186.692699,248.195694 184.449418,249.142857 181.857143,249.142857 L105.285714,249.142857 C102.693439,249.142857 100.450158,248.195694 98.5558036,246.301339 C96.6614489,244.406985 95.7142857,242.163703 95.7142857,239.571429 C95.7142857,238.175588 96.5118968,235.982158 98.1071429,232.991071 C99.7023889,229.999985 101.297611,226.510437 102.892857,222.522321 C104.488103,218.534206 105.285714,214.645852 105.285714,210.857143 L23.9285714,210.857143 C17.3481814,210.857143 11.7150532,208.51416 7.02901786,203.828125 C2.34298252,199.14209 0,193.508961 0,186.928571 L0,24.2142857 C0,17.6338957 2.34298252,12.0007675 7.02901786,7.31473214 C11.7150532,2.62869681 17.3481814,0.285714286 23.9285714,0.285714286 L263.214286,0.285714286 C269.794676,0.285714286 275.427804,2.62869681 280.113839,7.31473214 C284.799875,12.0007675 287.142857,17.6338957 287.142857,24.2142857 Z"/>
    <path fill="#FFF" d="M142.571429,59.5357143 L142.571429,114.178571 C142.571429,115.049111 142.253351,115.802452 141.617188,116.438616 C140.981024,117.07478 140.227683,117.392857 139.357143,117.392857 C138.486603,117.392857 137.733262,117.07478 137.097098,116.438616 L120.372768,99.7142857 L107.214286,99.7142857 C106.343746,99.7142857 105.590405,99.3962085 104.954241,98.7600446 C104.318077,98.1238807 104,97.3705401 104,96.5 L104,77.2142857 C104,76.3437456 104.318077,75.590405 104.954241,74.9542411 C105.590405,74.3180772 106.343746,74 107.214286,74 L120.372768,74 L137.097098,57.2756696 C137.733262,56.6395057 138.486603,56.3214286 139.357143,56.3214286 C140.227683,56.3214286 140.981024,56.6395057 141.617188,57.2756696 C142.253351,57.9118335 142.571429,58.6651742 142.571429,59.5357143 Z M161.857143,86.8571429 C161.857143,89.4017984 161.145654,91.7706364 159.722656,93.9637277 C158.299658,96.156819 156.416306,97.7220935 154.072545,98.6595982 C153.737722,98.8270098 153.319199,98.9107143 152.816964,98.9107143 C151.946424,98.9107143 151.193084,98.6010076 150.55692,97.9815848 C149.920756,97.3621621 149.602679,96.6004509 149.602679,95.6964286 C149.602679,94.9933001 149.803569,94.398998 150.205357,93.9135045 C150.607145,93.428011 151.092631,93.0094884 151.66183,92.6579241 C152.23103,92.3063598 152.80022,91.9213191 153.36942,91.5027902 C153.938619,91.0842613 154.424105,90.4815888 154.825893,89.6947545 C155.227681,88.9079202 155.428571,87.9620591 155.428571,86.8571429 C155.428571,85.7522266 155.227681,84.8063655 154.825893,84.0195312 C154.424105,83.232697 153.938619,82.6300244 153.36942,82.2114955 C152.80022,81.7929667 152.23103,81.4079259 151.66183,81.0563616 C151.092631,80.7047973 150.607145,80.2862747 150.205357,79.8007812 C149.803569,79.3152878 149.602679,78.7209857 149.602679,78.0178571 C149.602679,77.1138348 149.920756,76.3521236 150.55692,75.7327009 C151.193084,75.1132782 151.946424,74.8035714 152.816964,74.8035714 C153.319199,74.8035714 153.737722,74.8872759 154.072545,75.0546875 C156.416306,75.9587099 158.299658,77.515614 159.722656,79.7254464 C161.145654,81.9352789 161.857143,84.3124873 161.857143,86.8571429 Z M174.714286,86.8571429 C174.714286,91.9799363 173.291309,96.7092417 170.445312,101.045201 C167.599316,105.38116 163.832613,108.53682 159.145089,110.512277 C158.709819,110.679688 158.291297,110.763393 157.889509,110.763393 C156.985487,110.763393 156.215405,110.445316 155.579241,109.809152 C154.943077,109.172988 154.625,108.419647 154.625,107.549107 C154.625,106.243297 155.277895,105.255584 156.583705,104.585938 C158.458715,103.614951 159.731023,102.878351 160.40067,102.376116 C162.878361,100.568071 164.811935,98.2996788 166.201451,95.5708705 C167.590967,92.8420622 168.285714,89.9375154 168.285714,86.8571429 C168.285714,83.7767703 167.590967,80.8722235 166.201451,78.1434152 C164.811935,75.4146069 162.878361,73.1462144 160.40067,71.3381696 C159.731023,70.835935 158.458715,70.0993352 156.583705,69.1283482 C155.277895,68.458702 154.625,67.4709887 154.625,66.1651786 C154.625,65.2946385 154.943077,64.5412978 155.579241,63.9051339 C156.215405,63.26897 156.968746,62.9508929 157.839286,62.9508929 C158.274556,62.9508929 158.709819,63.0345974 159.145089,63.2020089 C163.832613,65.1774652 167.599316,68.3331256 170.445312,72.6690848 C173.291309,77.005044 174.714286,81.7343494 174.714286,86.8571429 Z M187.571429,86.8571429 C187.571429,94.5580742 185.445334,101.631106 181.19308,108.076451 C176.940827,114.521796 171.282401,119.267842 164.217634,122.314732 C163.782364,122.482144 163.3471,122.565848 162.91183,122.565848 C162.04129,122.565848 161.28795,122.247771 160.651786,121.611607 C160.015622,120.975443 159.697545,120.222103 159.697545,119.351562 C159.697545,118.146199 160.35044,117.158486 161.65625,116.388393 C161.890626,116.254464 162.267297,116.078684 162.786272,115.861049 C163.305248,115.643414 163.681918,115.467635 163.916295,115.333705 C165.456481,114.496648 166.829235,113.642861 168.034598,112.772321 C172.152922,109.725431 175.367176,105.925246 177.677455,101.371652 C179.987735,96.8180576 181.142857,91.9799363 181.142857,86.8571429 C181.142857,81.7343494 179.987735,76.8962281 177.677455,72.3426339 C175.367176,67.7890397 172.152922,63.9888545 168.034598,60.9419643 C166.829235,60.0714242 165.456481,59.2176381 163.916295,58.3805804 C163.681918,58.2466511 163.305248,58.0708716 162.786272,57.8532366 C162.267297,57.6356016 161.890626,57.4598221 161.65625,57.3258929 C160.35044,56.5557997 159.697545,55.5680864 159.697545,54.3627232 C159.697545,53.4921831 160.015622,52.7388425 160.651786,52.1026786 C161.28795,51.4665147 162.04129,51.1484375 162.91183,51.1484375 C163.3471,51.1484375 163.782364,51.232142 164.217634,51.3995536 C171.282401,54.4464438 176.940827,59.1924901 181.19308,65.6378348 C185.445334,72.0831795 187.571429,79.1562115 187.571429,86.8571429 Z"/>
  </g>
</svg>
