<svg xmlns="http://www.w3.org/2000/svg" width="180" height="200" viewBox="0 0 180 200">
  <g fill="none" fill-rule="evenodd">
    <g transform="translate(70 160)">
      <circle cx="20" cy="20" r="20" fill="#FF6072"/>
      <path fill="#FFF" d="M27.6607143,24.7956349 C27.6607143,25.139552 27.5403451,25.4318771 27.2996032,25.672619 L25.5456349,27.4265873 C25.304893,27.6673292 25.0125679,27.7876984 24.6686508,27.7876984 C24.3247337,27.7876984 24.0324086,27.6673292 23.7916667,27.4265873 L20,23.6349206 L16.2083333,27.4265873 C15.9675914,27.6673292 15.6752663,27.7876984 15.3313492,27.7876984 C14.9874321,27.7876984 14.695107,27.6673292 14.4543651,27.4265873 L12.7003968,25.672619 C12.4596549,25.4318771 12.3392857,25.139552 12.3392857,24.7956349 C12.3392857,24.4517179 12.4596549,24.1593927 12.7003968,23.9186508 L16.4920635,20.1269841 L12.7003968,16.3353175 C12.4596549,16.0945755 12.3392857,15.8022504 12.3392857,15.4583333 C12.3392857,15.1144163 12.4596549,14.8220912 12.7003968,14.5813492 L14.4543651,12.827381 C14.695107,12.586639 14.9874321,12.4662698 15.3313492,12.4662698 C15.6752663,12.4662698 15.9675914,12.586639 16.2083333,12.827381 L20,16.6190476 L23.7916667,12.827381 C24.0324086,12.586639 24.3247337,12.4662698 24.6686508,12.4662698 C25.0125679,12.4662698 25.304893,12.586639 25.5456349,12.827381 L27.2996032,14.5813492 C27.5403451,14.8220912 27.6607143,15.1144163 27.6607143,15.4583333 C27.6607143,15.8022504 27.5403451,16.0945755 27.2996032,16.3353175 L23.5079365,20.1269841 L27.2996032,23.9186508 C27.5403451,24.1593927 27.6607143,24.4517179 27.6607143,24.7956349 Z"/>
    </g>
    <g transform="translate(20)">
      <circle cx="38.241" cy="83.147" r="38.241" fill="#F4157C" opacity=".94"/>
      <circle cx="101.39" cy="83.147" r="38.241" fill="#BD10E0" opacity=".91"/>
      <circle cx="72.622" cy="38.241" r="38.241" fill="#F8E71C" opacity=".879"/>
    </g>
  </g>
</svg>
