<svg xmlns="http://www.w3.org/2000/svg" width="180" height="200" viewBox="0 0 180 200">
  <g fill="none" fill-rule="evenodd">
    <g transform="translate(70 160)">
      <circle cx="20" cy="20" r="20" fill="#FF6072"/>
      <path fill="#FFF" d="M27.6607143,24.7956349 C27.6607143,25.139552 27.5403451,25.4318771 27.2996032,25.672619 L25.5456349,27.4265873 C25.304893,27.6673292 25.0125679,27.7876984 24.6686508,27.7876984 C24.3247337,27.7876984 24.0324086,27.6673292 23.7916667,27.4265873 L20,23.6349206 L16.2083333,27.4265873 C15.9675914,27.6673292 15.6752663,27.7876984 15.3313492,27.7876984 C14.9874321,27.7876984 14.695107,27.6673292 14.4543651,27.4265873 L12.7003968,25.672619 C12.4596549,25.4318771 12.3392857,25.139552 12.3392857,24.7956349 C12.3392857,24.4517179 12.4596549,24.1593927 12.7003968,23.9186508 L16.4920635,20.1269841 L12.7003968,16.3353175 C12.4596549,16.0945755 12.3392857,15.8022504 12.3392857,15.4583333 C12.3392857,15.1144163 12.4596549,14.8220912 12.7003968,14.5813492 L14.4543651,12.827381 C14.695107,12.586639 14.9874321,12.4662698 15.3313492,12.4662698 C15.6752663,12.4662698 15.9675914,12.586639 16.2083333,12.827381 L20,16.6190476 L23.7916667,12.827381 C24.0324086,12.586639 24.3247337,12.4662698 24.6686508,12.4662698 C25.0125679,12.4662698 25.304893,12.586639 25.5456349,12.827381 L27.2996032,14.5813492 C27.5403451,14.8220912 27.6607143,15.1144163 27.6607143,15.4583333 C27.6607143,15.8022504 27.5403451,16.0945755 27.2996032,16.3353175 L23.5079365,20.1269841 L27.2996032,23.9186508 C27.5403451,24.1593927 27.6607143,24.4517179 27.6607143,24.7956349 Z"/>
    </g>
    <g fill="#F47738" transform="translate(16 57)">
      <path d="M71 48.3636364L71 53.4545455C71 54.1439428 70.7490724 54.7405278 70.2472098 55.2443182 69.7453472 55.7481086 69.1510451 56 68.4642857 56L2.53571429 56C1.8489549 56 1.25465281 55.7481086.752790179 55.2443182.25092755 54.7405278 0 54.1439428 0 53.4545455L0 48.3636364C0 47.674239.25092755 47.077654.752790179 46.5738636 1.25465281 46.0700732 1.8489549 45.8181818 2.53571429 45.8181818L68.4642857 45.8181818C69.1510451 45.8181818 69.7453472 46.0700732 70.2472098 46.5738636 70.7490724 47.077654 71 47.674239 71 48.3636364zM71 33.0909091L71 38.1818182C71 38.8712156 70.7490724 39.4678005 70.2472098 39.9715909 69.7453472 40.4753813 69.1510451 40.7272727 68.4642857 40.7272727L2.53571429 40.7272727C1.8489549 40.7272727 1.25465281 40.4753813.752790179 39.9715909.25092755 39.4678005 0 38.8712156 0 38.1818182L0 33.0909091C0 32.4015117.25092755 31.8049268.752790179 31.3011364 1.25465281 30.797346 1.8489549 30.5454545 2.53571429 30.5454545L68.4642857 30.5454545C69.1510451 30.5454545 69.7453472 30.797346 70.2472098 31.3011364 70.7490724 31.8049268 71 32.4015117 71 33.0909091zM71 17.8181818L71 22.9090909C71 23.5984883 70.7490724 24.1950732 70.2472098 24.6988636 69.7453472 25.202654 69.1510451 25.4545455 68.4642857 25.4545455L2.53571429 25.4545455C1.8489549 25.4545455 1.25465281 25.202654.752790179 24.6988636.25092755 24.1950732 0 23.5984883 0 22.9090909L0 17.8181818C0 17.1287844.25092755 16.5321995.752790179 16.0284091 1.25465281 15.5246187 1.8489549 15.2727273 2.53571429 15.2727273L68.4642857 15.2727273C69.1510451 15.2727273 69.7453472 15.5246187 70.2472098 16.0284091 70.7490724 16.5321995 71 17.1287844 71 17.8181818zM71 2.54545455L71 7.63636364C71 8.32576102 70.7490724 8.92234597 70.2472098 9.42613636 69.7453472 9.92992676 69.1510451 10.1818182 68.4642857 10.1818182L2.53571429 10.1818182C1.8489549 10.1818182 1.25465281 9.92992676.752790179 9.42613636.25092755 8.92234597 0 8.32576102 0 7.63636364L0 2.54545455C0 1.85605716.25092755 1.25947222.752790179.755681818 1.25465281.25189142 1.8489549 0 2.53571429 0L68.4642857 0C69.1510451 0 69.7453472.25189142 70.2472098.755681818 70.7490724 1.25947222 71 1.85605716 71 2.54545455zM149 48.3636364L149 53.4545455C149 54.1439428 148.749072 54.7405278 148.24721 55.2443182 147.745347 55.7481086 147.151045 56 146.464286 56L80.5357143 56C79.8489549 56 79.2546528 55.7481086 78.7527902 55.2443182 78.2509276 54.7405278 78 54.1439428 78 53.4545455L78 48.3636364C78 47.674239 78.2509276 47.077654 78.7527902 46.5738636 79.2546528 46.0700732 79.8489549 45.8181818 80.5357143 45.8181818L146.464286 45.8181818C147.151045 45.8181818 147.745347 46.0700732 148.24721 46.5738636 148.749072 47.077654 149 47.674239 149 48.3636364zM149 33.0909091L149 38.1818182C149 38.8712156 148.749072 39.4678005 148.24721 39.9715909 147.745347 40.4753813 147.151045 40.7272727 146.464286 40.7272727L80.5357143 40.7272727C79.8489549 40.7272727 79.2546528 40.4753813 78.7527902 39.9715909 78.2509276 39.4678005 78 38.8712156 78 38.1818182L78 33.0909091C78 32.4015117 78.2509276 31.8049268 78.7527902 31.3011364 79.2546528 30.797346 79.8489549 30.5454545 80.5357143 30.5454545L146.464286 30.5454545C147.151045 30.5454545 147.745347 30.797346 148.24721 31.3011364 148.749072 31.8049268 149 32.4015117 149 33.0909091zM149 17.8181818L149 22.9090909C149 23.5984883 148.749072 24.1950732 148.24721 24.6988636 147.745347 25.202654 147.151045 25.4545455 146.464286 25.4545455L80.5357143 25.4545455C79.8489549 25.4545455 79.2546528 25.202654 78.7527902 24.6988636 78.2509276 24.1950732 78 23.5984883 78 22.9090909L78 17.8181818C78 17.1287844 78.2509276 16.5321995 78.7527902 16.0284091 79.2546528 15.5246187 79.8489549 15.2727273 80.5357143 15.2727273L146.464286 15.2727273C147.151045 15.2727273 147.745347 15.5246187 148.24721 16.0284091 148.749072 16.5321995 149 17.1287844 149 17.8181818zM149 2.54545455L149 7.63636364C149 8.32576102 148.749072 8.92234597 148.24721 9.42613636 147.745347 9.92992676 147.151045 10.1818182 146.464286 10.1818182L80.5357143 10.1818182C79.8489549 10.1818182 79.2546528 9.92992676 78.7527902 9.42613636 78.2509276 8.92234597 78 8.32576102 78 7.63636364L78 2.54545455C78 1.85605716 78.2509276 1.25947222 78.7527902.755681818 79.2546528.25189142 79.8489549 0 80.5357143 0L146.464286 0C147.151045 0 147.745347.25189142 148.24721.755681818 148.749072 1.25947222 149 1.85605716 149 2.54545455z"/>
    </g>
  </g>
</svg>
