<svg xmlns="http://www.w3.org/2000/svg" width="180" height="200" viewBox="0 0 180 200">
  <g fill="none" fill-rule="evenodd">
    <g transform="translate(70 160)">
      <circle cx="20" cy="20" r="20" fill="#FF6072"/>
      <path fill="#FFF" d="M27.6607143,24.7956349 C27.6607143,25.139552 27.5403451,25.4318771 27.2996032,25.672619 L25.5456349,27.4265873 C25.304893,27.6673292 25.0125679,27.7876984 24.6686508,27.7876984 C24.3247337,27.7876984 24.0324086,27.6673292 23.7916667,27.4265873 L20,23.6349206 L16.2083333,27.4265873 C15.9675914,27.6673292 15.6752663,27.7876984 15.3313492,27.7876984 C14.9874321,27.7876984 14.695107,27.6673292 14.4543651,27.4265873 L12.7003968,25.672619 C12.4596549,25.4318771 12.3392857,25.139552 12.3392857,24.7956349 C12.3392857,24.4517179 12.4596549,24.1593927 12.7003968,23.9186508 L16.4920635,20.1269841 L12.7003968,16.3353175 C12.4596549,16.0945755 12.3392857,15.8022504 12.3392857,15.4583333 C12.3392857,15.1144163 12.4596549,14.8220912 12.7003968,14.5813492 L14.4543651,12.827381 C14.695107,12.586639 14.9874321,12.4662698 15.3313492,12.4662698 C15.6752663,12.4662698 15.9675914,12.586639 16.2083333,12.827381 L20,16.6190476 L23.7916667,12.827381 C24.0324086,12.586639 24.3247337,12.4662698 24.6686508,12.4662698 C25.0125679,12.4662698 25.304893,12.586639 25.5456349,12.827381 L27.2996032,14.5813492 C27.5403451,14.8220912 27.6607143,15.1144163 27.6607143,15.4583333 C27.6607143,15.8022504 27.5403451,16.0945755 27.2996032,16.3353175 L23.5079365,20.1269841 L27.2996032,23.9186508 C27.5403451,24.1593927 27.6607143,24.4517179 27.6607143,24.7956349 Z"/>
    </g>
    <g transform="translate(43 18)">
      <rect width="76.797" height="105.059" x="7.987" y="7.373" fill="#FFF"/>
      <path fill="#333" d="M52.110795,104.46673 C52.110795,103.055389 51.5951204,101.834054 50.5637558,100.80269 C49.5323911,99.771325 48.3110566,99.2556504 46.8997155,99.2556504 C45.4883744,99.2556504 44.2670399,99.771325 43.2356752,100.80269 C42.2043106,101.834054 41.688636,103.055389 41.688636,104.46673 C41.688636,105.878071 42.2043106,107.099406 43.2356752,108.13077 C44.2670399,109.162135 45.4883744,109.677809 46.8997155,109.677809 C48.3110566,109.677809 49.5323911,109.162135 50.5637558,108.13077 C51.5951204,107.099406 52.110795,105.878071 52.110795,104.46673 Z M83.377272,91.4390311 L83.377272,13.2728386 C83.377272,12.5671681 83.1194347,11.9565008 82.6037524,11.4408185 C82.0880701,10.9251362 81.4774028,10.6672989 80.7717323,10.6672989 L13.0276988,10.6672989 C12.3220282,10.6672989 11.7113609,10.9251362 11.1956786,11.4408185 C10.6799963,11.9565008 10.422159,12.5671681 10.422159,13.2728386 L10.422159,91.4390311 C10.422159,92.1447017 10.6799963,92.755369 11.1956786,93.2710513 C11.7113609,93.7867336 12.3220282,94.0445709 13.0276988,94.0445709 L80.7717323,94.0445709 C81.4774028,94.0445709 82.0880701,93.7867336 82.6037524,93.2710513 C83.1194347,92.755369 83.377272,92.1447017 83.377272,91.4390311 Z M93.799431,13.2728386 L93.799431,101.86119 C93.799431,105.443825 92.5238149,108.510732 89.9725445,111.062002 C87.4212741,113.613273 84.3543673,114.888889 80.7717323,114.888889 L13.0276988,114.888889 C9.44506368,114.888889 6.37815694,113.613273 3.82688651,111.062002 C1.27561608,108.510732 0,105.443825 0,101.86119 L0,13.2728386 C0,9.69020356 1.27561608,6.62329681 3.82688651,4.07202638 C6.37815694,1.52075596 9.44506368,0.245139877 13.0276988,0.245139877 L80.7717323,0.245139877 C84.3543673,0.245139877 87.4212741,1.52075596 89.9725445,4.07202638 C92.5238149,6.62329681 93.799431,9.69020356 93.799431,13.2728386 Z"/>
      <rect width="36.838" height="6.357" x="44.459" y="34.058" fill="#B58840"/>
      <rect width="27.622" height="6.357" x="13.741" y="34.058" fill="#F47738"/>
      <rect width="27.622" height="6.357" x="13.741" y="43.888" fill="#FFBF47"/>
      <rect width="36.838" height="6.357" x="44.459" y="43.594" fill="#F47738"/>
      <rect width="36.838" height="6.357" x="13.338" y="53.13" fill="#B58840"/>
      <rect width="36.838" height="6.357" x="13.338" y="62.667" fill="#F47738"/>
      <rect width="36.838" height="6.357" x="13.338" y="72.203" fill="#B58840"/>
      <rect width="67.959" height="10.172" x="13.338" y="81.739" fill="#28A197"/>
      <rect width="67.959" height="18.437" x="13.338" y="13.078" fill="#FFF"/>
      <rect width="27.628" height="6.357" x="53.034" y="53.13" fill="#FFBF47"/>
      <rect width="27.628" height="6.357" x="53.034" y="62.961" fill="#28A197"/>
      <rect width="13.516" height="6.357" x="53.034" y="72.176" fill="#FFBF47"/>
      <rect width="11.059" height="6.357" x="69.622" y="72.176" fill="#B58840"/>
      <rect width="67.612" height="15.258" x="13.5" y="15.6" fill="#FFBF47"/>
    </g>
  </g>
</svg>
