<svg xmlns="http://www.w3.org/2000/svg" width="180" height="200" viewBox="0 0 180 200">
  <g fill="none" fill-rule="evenodd">
    <g transform="translate(70 160)">
      <circle cx="20" cy="20" r="20" fill="#3FBE7C"/>
      <path fill="#FFF" d="M30.731383,15.8611111 C30.731383,16.2314833 30.6072707,16.546295 30.3590426,16.8055556 L18.9228723,28.75 C18.6746441,29.0092606 18.3732287,29.1388889 18.018617,29.1388889 C17.6640053,29.1388889 17.3625899,29.0092606 17.1143617,28.75 L10.4920213,21.8333333 C10.2437931,21.5740728 10.1196809,21.2592611 10.1196809,20.8888889 C10.1196809,20.5185167 10.2437931,20.203705 10.4920213,19.9444444 L12.3005319,18.0555556 C12.5487601,17.796295 12.8501755,17.6666667 13.2047872,17.6666667 C13.5593989,17.6666667 13.8608144,17.796295 14.1090426,18.0555556 L18.018617,22.1527778 L26.7420213,13.0277778 C26.9902495,12.7685172 27.2916649,12.6388889 27.6462766,12.6388889 C28.0008883,12.6388889 28.3023037,12.7685172 28.5505319,13.0277778 L30.3590426,14.9166667 C30.6072707,15.1759272 30.731383,15.4907389 30.731383,15.8611111 Z"/>
    </g>
    <g transform="translate(43 17)">
      <rect width="77.1" height="102.533" x="8.722" y="9.808" fill="#FFF"/>
      <path fill="#0B0C0C" d="M52.096582,104.21483 C52.096582,102.803874 51.5810481,101.582872 50.5499648,100.551789 C49.5188814,99.5207057 48.29788,99.0051717 46.8869238,99.0051717 C45.4759677,99.0051717 44.2549662,99.5207057 43.2238829,100.551789 C42.1927996,101.582872 41.6772656,102.803874 41.6772656,104.21483 C41.6772656,105.625786 42.1927996,106.846788 43.2238829,107.877871 C44.2549662,108.908954 45.4759677,109.424488 46.8869238,109.424488 C48.29788,109.424488 49.5188814,108.908954 50.5499648,107.877871 C51.5810481,106.846788 52.096582,105.625786 52.096582,104.21483 Z M83.3545312,91.1906844 L83.3545312,13.0458114 C83.3545312,12.3403333 83.0967643,11.7298326 82.5812226,11.2142909 C82.0656809,10.6987493 81.4551802,10.4409823 80.7497021,10.4409823 L13.0241455,10.4409823 C12.3186674,10.4409823 11.7081667,10.6987493 11.192625,11.2142909 C10.6770834,11.7298326 10.4193164,12.3403333 10.4193164,13.0458114 L10.4193164,91.1906844 C10.4193164,91.8961625 10.6770834,92.5066632 11.192625,93.0222049 C11.7081667,93.5377466 12.3186674,93.7955135 13.0241455,93.7955135 L80.7497021,93.7955135 C81.4551802,93.7955135 82.0656809,93.5377466 82.5812226,93.0222049 C83.0967643,92.5066632 83.3545312,91.8961625 83.3545312,91.1906844 Z M93.7738477,13.0458114 L93.7738477,101.610001 C93.7738477,105.191659 92.4985795,108.257729 89.9480049,110.808304 C87.3974303,113.358878 84.3313601,114.634146 80.7497021,114.634146 L13.0241455,114.634146 C9.44248758,114.634146 6.37641732,113.358878 3.82584274,110.808304 C1.27526816,108.257729 0,105.191659 0,101.610001 L0,13.0458114 C0,9.46415346 1.27526816,6.3980832 3.82584274,3.84750862 C6.37641732,1.29693404 9.44248758,0.0216658753 13.0241455,0.0216658753 L80.7497021,0.0216658753 C84.3313601,0.0216658753 87.3974303,1.29693404 89.9480049,3.84750862 C92.4985795,6.3980832 93.7738477,9.46415346 93.7738477,13.0458114 Z"/>
      <rect width="63.787" height="15.224" x="15.309" y="14.952" fill="#FFBF47"/>
      <rect width="63.787" height="6.343" x="15.309" y="37.788" fill="#F47738"/>
      <rect width="63.787" height="6.343" x="15.309" y="50.475" fill="#F47738"/>
      <rect width="63.787" height="6.343" x="15.309" y="63.162" fill="#F47738"/>
      <rect width="23.601" height="9.515" x="15.309" y="76.483" fill="#28A197"/>
    </g>
  </g>
</svg>
