<svg xmlns="http://www.w3.org/2000/svg" width="180" height="200" viewBox="0 0 180 200">
  <g fill="none" fill-rule="evenodd">
    <g transform="translate(20)">
      <circle cx="39.691" cy="86.598" r="39.691" fill="#F47738" opacity=".8"/>
      <circle cx="67.835" cy="39.691" r="39.691" fill="#FFBF47" opacity=".798"/>
      <circle cx="100.309" cy="86.598" r="39.691" fill="#28A197" opacity=".8"/>
    </g>
    <g transform="translate(70 160)">
      <circle cx="20" cy="20" r="20" fill="#3FBE7C"/>
      <path fill="#FFF" d="M30.731383,15.8611111 C30.731383,16.2314833 30.6072707,16.546295 30.3590426,16.8055556 L18.9228723,28.75 C18.6746441,29.0092606 18.3732287,29.1388889 18.018617,29.1388889 C17.6640053,29.1388889 17.3625899,29.0092606 17.1143617,28.75 L10.4920213,21.8333333 C10.2437931,21.5740728 10.1196809,21.2592611 10.1196809,20.8888889 C10.1196809,20.5185167 10.2437931,20.203705 10.4920213,19.9444444 L12.3005319,18.0555556 C12.5487601,17.796295 12.8501755,17.6666667 13.2047872,17.6666667 C13.5593989,17.6666667 13.8608144,17.796295 14.1090426,18.0555556 L18.018617,22.1527778 L26.7420213,13.0277778 C26.9902495,12.7685172 27.2916649,12.6388889 27.6462766,12.6388889 C28.0008883,12.6388889 28.3023037,12.7685172 28.5505319,13.0277778 L30.3590426,14.9166667 C30.6072707,15.1759272 30.731383,15.4907389 30.731383,15.8611111 Z"/>
    </g>
  </g>
</svg>
