<svg xmlns="http://www.w3.org/2000/svg" width="307" height="286" viewBox="0 0 307 286">
  <g fill="none" fill-rule="evenodd">
    <path fill="#FFBF47" d="M56.0825893,217.866071 C55.8593739,217.866071 55.5245558,217.754465 55.078125,217.53125 C45.4798627,211.169611 36.077055,203.078174 26.8694196,193.256696 C17.6617843,183.435219 9.87726395,173.390676 3.515625,163.122768 C1.17186328,159.774537 0,155.924129 0,151.571429 C0,150.566959 0.111606027,149.506702 0.334821429,148.390625 C0.55803683,147.274548 0.781248884,146.270094 1.00446429,145.377232 C1.22767969,144.484371 1.61830078,143.479916 2.17633929,142.363839 C2.73437779,141.247762 3.2087034,140.354914 3.59933036,139.685268 C3.98995731,139.015622 4.57588895,138.06697 5.35714286,136.839286 C6.13839676,135.611601 6.6964269,134.774556 7.03125,134.328125 C7.3660731,133.881694 8.03570926,133.016747 9.04017857,131.733259 C10.0446479,130.44977 10.658481,129.640627 10.8816964,129.305804 C31.4175134,101.292271 56.6404754,80.9241708 86.5513393,68.2008929 C74.2744922,46.1025681 68.1361607,34.3281323 68.1361607,32.8772321 C68.1361607,30.7566858 69.0848119,29.1383984 70.9821429,28.0223214 C83.9286362,20.8794286 91.0714219,17.3080357 92.4107143,17.3080357 C94.4196529,17.3080357 95.9821373,18.2008839 97.0982143,19.9866071 L117.857143,58.3236607 C128.125051,56.2031144 138.83923,55.1428571 150,55.1428571 C179.687648,55.1428571 207.449648,62.8157715 233.28683,78.1618304 C259.124013,93.5078892 280.245454,114.127103 296.651786,140.020089 C298.88394,143.479928 300,147.330336 300,151.571429 C300,155.812521 298.88394,159.662929 296.651786,163.122768 C286.495485,178.971061 274.302527,193.117125 260.072545,205.561384 C245.842563,218.005643 230.301424,227.799071 213.448661,234.941964 C225.725508,257.040289 231.863839,268.814725 231.863839,270.265625 C231.863839,272.497779 230.915188,274.116066 229.017857,275.120536 C216.071364,282.263429 208.984381,285.834821 207.756696,285.834821 C205.63615,285.834821 204.017863,284.941973 202.901786,283.15625 L182.142857,244.819196 L171.428571,224.897321 L97.0982143,87.6205357 L98.2700893,86.4486607 C91.7968426,89.1272455 86.2723443,91.7499872 81.6964286,94.3169643 C82.0312517,94.8750028 89.1182344,107.932908 102.957589,133.491071 C116.796944,159.049235 130.357076,184.104788 143.638393,208.658482 C156.919709,233.212176 163.560268,245.656248 163.560268,245.991071 C163.560268,246.772325 163.058041,247.274552 162.053571,247.497768 C160.602671,247.832591 156.584854,248 150,248 C143.638361,248 140.29018,247.609379 139.955357,246.828125 L63.6160714,106.035714 C59.2633711,109.16073 54.687524,112.955335 49.8883929,117.419643 C52.5669777,122.218774 64.5088225,144.17726 85.7142857,183.295759 C106.919749,222.414258 117.522321,242.196426 117.522321,242.642857 C117.522321,243.758934 116.908488,244.316964 115.680804,244.316964 C114.118296,244.316964 109.514547,243.089298 101.86942,240.633929 C94.2242921,238.178559 90.1785737,236.616075 89.7321429,235.946429 L71.9866071,202.966518 L34.4866071,133.825893 C29.5758683,139.741101 25.2232333,145.65622 21.4285714,151.571429 C21.6517868,151.906252 22.6562411,153.301327 24.4419643,155.756696 C26.2276875,158.212066 27.5111568,160.109368 28.2924107,161.448661 L57.7566964,216.191964 C57.7566964,217.308041 57.1986663,217.866071 56.0825893,217.866071 Z M195.033482,200.790179 L203.236607,216.024554 C233.705509,203.636099 258.816866,182.151939 278.571429,151.571429 C258.482042,120.656095 232.868459,98.9487232 201.729911,86.4486607 C209.207627,93.5915536 214.955337,101.878301 218.973214,111.309152 C222.991092,120.740003 225,130.589234 225,140.857143 C225,152.687559 222.377258,163.876063 217.131696,174.422991 C211.886134,184.969919 204.520137,193.758893 195.033482,200.790179 Z M141.964286,98 C141.964286,100.232154 142.745528,102.129456 144.308036,103.691964 C145.870544,105.254472 147.767846,106.035714 150,106.035714 C159.598262,106.035714 167.801305,109.439698 174.609375,116.247768 C181.417445,123.055838 184.821429,131.258881 184.821429,140.857143 C184.821429,143.089297 185.602671,144.986599 187.165179,146.549107 C188.727686,148.111615 190.624989,148.892857 192.857143,148.892857 C195.089297,148.892857 196.986599,148.111615 198.549107,146.549107 C200.111615,144.986599 200.892857,143.089297 200.892857,140.857143 C200.892857,126.794573 195.926389,114.796925 185.993304,104.863839 C176.060218,94.9307539 164.06257,89.9642857 150,89.9642857 C147.767846,89.9642857 145.870544,90.7455279 144.308036,92.3080357 C142.745528,93.8705435 141.964286,95.767846 141.964286,98 Z M203.236607,87.1183036 L201.729911,86.4486607 L202.901786,87.6205357 L203.236607,87.1183036 Z"/>
    <path fill="#F47738" d="M63.0825893,200.866071 C62.8593739,200.866071 62.5245558,200.754465 62.078125,200.53125 C52.4798627,194.169611 43.077055,186.078174 33.8694196,176.256696 C24.6617843,166.435219 16.877264,156.390676 10.515625,146.122768 C8.17186328,142.774537 7,138.924129 7,134.571429 C7,133.566959 7.11160603,132.506702 7.33482143,131.390625 C7.55803683,130.274548 7.78124888,129.270094 8.00446429,128.377232 C8.22767969,127.484371 8.61830078,126.479916 9.17633929,125.363839 C9.73437779,124.247762 10.2087034,123.354914 10.5993304,122.685268 C10.9899573,122.015622 11.575889,121.06697 12.3571429,119.839286 C13.1383968,118.611601 13.6964269,117.774556 14.03125,117.328125 C14.3660731,116.881694 15.0357093,116.016747 16.0401786,114.733259 C17.0446479,113.44977 17.658481,112.640627 17.8816964,112.305804 C38.4175134,84.2922706 63.6404754,63.9241708 93.5513393,51.2008929 C81.2744922,29.1025681 75.1361607,17.3281323 75.1361607,15.8772321 C75.1361607,13.7566858 76.0848119,12.1383984 77.9821429,11.0223214 C90.9286362,3.87942857 98.0714219,0.308035714 99.4107143,0.308035714 C101.419653,0.308035714 102.982137,1.20088393 104.098214,2.98660714 L124.857143,41.3236607 C135.125051,39.2031144 145.83923,38.1428571 157,38.1428571 C186.687648,38.1428571 214.449648,45.8157715 240.28683,61.1618304 C266.124013,76.5078892 287.245454,97.1271027 303.651786,123.020089 C305.88394,126.479928 307,130.330336 307,134.571429 C307,138.812521 305.88394,142.662929 303.651786,146.122768 C293.495485,161.971061 281.302527,176.117125 267.072545,188.561384 C252.842563,201.005643 237.301424,210.799071 220.448661,217.941964 C232.725508,240.040289 238.863839,251.814725 238.863839,253.265625 C238.863839,255.497779 237.915188,257.116066 236.017857,258.120536 C223.071364,265.263429 215.984381,268.834821 214.756696,268.834821 C212.63615,268.834821 211.017863,267.941973 209.901786,266.15625 L189.142857,227.819196 L178.428571,207.897321 L104.098214,70.6205357 L105.270089,69.4486607 C98.7968426,72.1272455 93.2723443,74.7499872 88.6964286,77.3169643 C89.0312517,77.8750028 96.1182344,90.9329079 109.957589,116.491071 C123.796944,142.049235 137.357076,167.104788 150.638393,191.658482 C163.919709,216.212176 170.560268,228.656248 170.560268,228.991071 C170.560268,229.772325 170.058041,230.274552 169.053571,230.497768 C167.602671,230.832591 163.584854,231 157,231 C150.638361,231 147.29018,230.609379 146.955357,229.828125 L70.6160714,89.0357143 C66.2633711,92.1607299 61.687524,95.9553348 56.8883929,100.419643 C59.5669777,105.218774 71.5088225,127.17726 92.7142857,166.295759 C113.919749,205.414258 124.522321,225.196426 124.522321,225.642857 C124.522321,226.758934 123.908488,227.316964 122.680804,227.316964 C121.118296,227.316964 116.514547,226.089298 108.86942,223.633929 C101.224292,221.178559 97.1785737,219.616075 96.7321429,218.946429 L78.9866071,185.966518 L41.4866071,116.825893 C36.5758683,122.741101 32.2232333,128.65622 28.4285714,134.571429 C28.6517868,134.906252 29.6562411,136.301327 31.4419643,138.756696 C33.2276875,141.212066 34.5111568,143.109368 35.2924107,144.448661 L64.7566964,199.191964 C64.7566964,200.308041 64.1986663,200.866071 63.0825893,200.866071 Z M202.033482,183.790179 L210.236607,199.024554 C240.705509,186.636099 265.816866,165.151939 285.571429,134.571429 C265.482042,103.656095 239.868459,81.9487232 208.729911,69.4486607 C216.207627,76.5915536 221.955337,84.8783011 225.973214,94.3091518 C229.991092,103.740003 232,113.589234 232,123.857143 C232,135.687559 229.377258,146.876063 224.131696,157.422991 C218.886134,167.969919 211.520137,176.758893 202.033482,183.790179 Z M148.964286,81 C148.964286,83.232154 149.745528,85.1294565 151.308036,86.6919643 C152.870544,88.2544721 154.767846,89.0357143 157,89.0357143 C166.598262,89.0357143 174.801305,92.4396981 181.609375,99.2477679 C188.417445,106.055838 191.821429,114.258881 191.821429,123.857143 C191.821429,126.089297 192.602671,127.986599 194.165179,129.549107 C195.727686,131.111615 197.624989,131.892857 199.857143,131.892857 C202.089297,131.892857 203.986599,131.111615 205.549107,129.549107 C207.111615,127.986599 207.892857,126.089297 207.892857,123.857143 C207.892857,109.794573 202.926389,97.7969247 192.993304,87.8638393 C183.060218,77.9307539 171.06257,72.9642857 157,72.9642857 C154.767846,72.9642857 152.870544,73.7455279 151.308036,75.3080357 C149.745528,76.8705435 148.964286,78.767846 148.964286,81 Z M210.236607,70.1183036 L208.729911,69.4486607 L209.901786,70.6205357 L210.236607,70.1183036 Z"/>
  </g>
</svg>
